<?xml version="1.0" standalone="no"?><!DOCTYPE svg PUBLIC "-//W3C//DTD SVG 1.1//EN" "http://www.w3.org/Graphics/SVG/1.1/DTD/svg11.dtd"><svg t="1613715639528" class="icon" viewBox="0 0 1024 1024" version="1.1" xmlns="http://www.w3.org/2000/svg" p-id="10616" xmlns:xlink="http://www.w3.org/1999/xlink" width="200" height="200"><defs><style type="text/css"></style></defs><path d="M728.6272 917.1456h-112.7424c-25.7024 0-46.592-20.8896-46.592-46.592v-219.904c0-10.3424-8.3968-18.7392-18.7392-18.7392h-87.552c-10.3424 0-18.7392 8.3968-18.7392 18.7392v219.904c0 25.7024-20.8896 46.592-46.592 46.592H284.928c-54.528 0-98.8672-44.3392-98.8672-98.8672v-235.264c0-3.1232-2.56-5.632-5.632-5.632h-23.3984c-24.576 0-45.6704-14.08-55.0912-36.7616-9.4208-22.6816-4.5056-47.616 12.8-65.024l349.7984-351.3344c11.264-11.3152 26.3168-17.5616 42.2912-17.5616s31.0272 6.2464 42.2912 17.5616l349.7984 351.3344c17.3568 17.408 22.2208 42.3424 12.8 65.024-9.4208 22.6816-30.5152 36.7616-55.0912 36.7616h-23.3984c-3.1232 0-5.632 2.56-5.632 5.632v235.264c-0.1024 54.528-44.4416 98.8672-98.9696 98.8672z m-265.6256-326.1952h87.552c32.9216 0 59.6992 26.7776 59.6992 59.6992v219.904c0 3.1232 2.56 5.632 5.632 5.632h112.7424c31.9488 0 57.9072-26.0096 57.9072-57.9072v-235.264c0-25.7024 20.8896-46.592 46.592-46.592h23.3984c11.5712 0 16.1792-8.8064 17.3056-11.52 1.1264-2.7136 4.1472-12.1856-4.0448-20.3776l-349.7984-351.3344c-7.0656-7.1168-19.456-7.1168-26.5216 0L143.7184 504.4736c-8.192 8.192-5.1712 17.664-4.0448 20.3776 1.1264 2.7136 5.6832 11.52 17.3056 11.52h23.3984c25.7024 0 46.592 20.8896 46.592 46.592v235.264c0 31.9488 26.0096 57.9072 57.9072 57.9072h112.7424c3.1232 0 5.632-2.56 5.632-5.632v-219.904c0.0512-32.8704 26.8288-59.648 59.7504-59.648z" fill="#888888" p-id="10617"></path></svg>