<?xml version="1.0" standalone="no"?><!DOCTYPE svg PUBLIC "-//W3C//DTD SVG 1.1//EN" "http://www.w3.org/Graphics/SVG/1.1/DTD/svg11.dtd"><svg t="1613715667986" class="icon" viewBox="0 0 1024 1024" version="1.1" xmlns="http://www.w3.org/2000/svg" p-id="10762" xmlns:xlink="http://www.w3.org/1999/xlink" width="200" height="200"><defs><style type="text/css"></style></defs><path d="M158.5 376v455.3c0 27.9 23.6 50.7 52.5 50.7h585.3c28.9 0 52.5-22.8 52.5-50.7V376h9.2L681.6 226.9 505 77.8 328.5 226.9 152 376h6.5z" fill="#CF0B11" p-id="10763"></path><path d="M796.4 882.2H211c-29.1 0-52.8-22.9-52.8-51v-455h-7L505 77.5l0.2 0.2 353.6 298.6h-9.7v455c0.1 28-23.6 50.9-52.7 50.9zM152.8 375.7h6v455.6c0 27.8 23.4 50.4 52.2 50.4h585.3c28.8 0 52.2-22.6 52.2-50.4V375.7h8.7L505 78.2 152.8 375.7z" fill="#332C2B" p-id="10764"></path><path d="M158.5 759.4h690.4v74.3c0 23.9-19 43.8-43.8 47.7H202.3c-24.8-3.9-43.8-23.8-43.8-47.7v-74.3zM158.5 628.5h690.4v121.9H158.5zM158.5 497.5h690.4v121.9H158.5zM192.9 366.5h624.3l40.9 33h-9.2v89H158.5v-89H152zM355.5 235.5h299l27.1 21.8L806 357.5H204.1l124.4-100.2zM643.3 226.5H366.8L505 115.1z" fill="#FF3D40" p-id="10765"></path><path d="M322.4 598.9H512c11.1 0 20.1 9.1 20.1 20.1v242.6c0 11.1-9.1 20.1-20.1 20.1H322.4c-11.1 0-20.1-9.1-20.1-20.1V619c0-11.1 9.1-20.1 20.1-20.1z" fill="#FF3D40" p-id="10766"></path><path d="M512 883.1H322.4c-11.9 0-21.5-9.7-21.5-21.5V619c0-11.9 9.7-21.5 21.5-21.5H512c11.9 0 21.5 9.7 21.5 21.5v242.6c0 11.9-9.6 21.5-21.5 21.5zM322.4 600.3c-10.3 0-18.7 8.4-18.7 18.7v242.6c0 10.3 8.4 18.7 18.7 18.7H512c10.3 0 18.7-8.4 18.7-18.7V619c0-10.3-8.4-18.7-18.7-18.7H322.4z" fill="#870002" p-id="10767"></path><path d="M349.5 370.5l144.1-144.1c5.4-5.4 14.3-5.4 19.7 0l144.1 144.1c5.4 5.4 5.4 14.3 0 19.7L513.3 534.3c-5.4 5.4-14.3 5.4-19.7 0L349.5 390.2c-5.4-5.5-5.4-14.3 0-19.7z" fill="#FFFA69" p-id="10768"></path><path d="M503.5 539.4c-3.8 0-7.7-1.5-10.6-4.4L348.8 390.9c-5.8-5.8-5.8-15.3 0-21.2l144.1-144.1c5.8-5.8 15.3-5.8 21.2 0l144.1 144.1c2.8 2.8 4.4 6.6 4.4 10.6s-1.6 7.8-4.4 10.6L514.1 535c-2.9 2.9-6.8 4.4-10.6 4.4zM350.3 371.2c-5 5-5 13.2 0 18.2l144.1 144.1c5 5 13.2 5 18.2 0l144.1-144.1c2.4-2.4 3.7-5.6 3.7-9.1s-1.3-6.7-3.7-9.1L512.6 227.1c-5-5-13.2-5-18.2 0L350.3 371.2z" fill="#870002" p-id="10769"></path><path d="M503.5 505.8c-3.1 0-6.1-1.2-8.5-3.5L381.6 388.8c-2.3-2.3-3.5-5.3-3.5-8.5s1.2-6.2 3.5-8.5l0.8 0.8-0.8-0.8L495 258.4c4.7-4.7 12.3-4.7 17 0l113.4 113.4c4.7 4.7 4.7 12.3 0 17L512 502.2c-2.3 2.4-5.4 3.6-8.5 3.6zM383.1 373.3c-1.9 1.9-2.9 4.3-2.9 7s1 5.1 2.9 7l113.4 113.4c3.9 3.8 10.1 3.9 14 0l113.4-113.4c3.9-3.9 3.9-10.1 0-14L510.5 259.9c-3.9-3.9-10.1-3.9-14 0L383.1 373.3z" fill="#FF3D40" p-id="10770"></path><path d="M521.3 443c-4.6 0-9-1.5-12.3-4.1-2.8-2.2-4.8-5.3-6.7-8.8-1.6 3-3.6 6.2-6.5 8.5-3.5 2.8-8.2 4.2-13.1 4-4.8-0.2-9.4-2-12.8-5-3.4-3-5.6-7.3-6.2-12.2-0.6-4.8 0.3-10.2 2.7-15.5 2.5-5.4 6.4-10.9 9.3-14.2 0.4-0.5 0.8-0.9 1.2-1.4 2.1-2.3 3.4-3.8 4.1-8.4 0.8-5.8 0.6-16.2-0.4-21.5-0.8-4-2.1-5-4.1-6.8-0.6-0.5-1.2-1-1.9-1.7-3.5-3.3-7.9-9-10-14.6-2.1-5.4-2.2-11.2-0.4-16.3 1.7-4.7 4.9-8.5 9.3-11 5.1-2.8 10.5-3.4 15.2-1.5 4.9 2 9.7 6.7 13.9 11.2 4.1-4.3 8.7-9 13.6-10.9 6.4-2.5 12.2-0.1 15.1 1.6 4.4 2.5 7.7 6.3 9.3 11 1.8 5.1 1.7 10.9-0.4 16.3-2.1 5.5-6.6 11.3-10 14.6-0.7 0.7-1.3 1.2-1.9 1.7-2.1 1.8-3.3 2.8-4.1 6.8-1.1 5.3-1.3 15.7-0.4 21.5 0.7 4.7 2 6.1 4.1 8.4 0.4 0.4 0.8 0.9 1.2 1.4 2.9 3.3 6.9 8.8 9.3 14.2 2.4 5.3 3.3 10.7 2.7 15.5-0.6 4.8-2.8 9.2-6.2 12.2-3.4 3-8 4.8-12.8 5h-0.8z m-19.1-17.4l1 1.8c2.2 4 4.2 7.5 7.2 9.9 3.1 2.5 7.4 3.8 11.7 3.6 4.3-0.2 8.4-1.8 11.4-4.5s4.9-6.5 5.5-10.9c0.6-4.4-0.3-9.4-2.5-14.3-2.4-5.2-6.2-10.5-9-13.7-0.4-0.5-0.8-0.9-1.2-1.3-2.2-2.5-3.9-4.2-4.6-9.5-0.9-6.1-0.7-16.7 0.4-22.2 0.9-4.7 2.7-6.2 4.8-8 0.6-0.5 1.2-1 1.8-1.6 3.3-3.1 7.5-8.6 9.5-13.8 1.9-4.9 2.1-10.2 0.4-14.9-1.5-4.2-4.4-7.6-8.4-9.8-2.6-1.5-7.8-3.6-13.3-1.4-4.7 1.8-9.4 6.8-13.6 11.2l-0.8 0.8-0.8-0.8c-4.3-4.5-9.1-9.6-13.9-11.5-5.6-2.2-10.8-0.1-13.4 1.3-4 2.2-6.9 5.6-8.4 9.8-1.6 4.6-1.5 9.9 0.4 14.9 2 5.2 6.2 10.7 9.5 13.8 0.7 0.6 1.2 1.1 1.8 1.6 2.2 1.8 3.9 3.3 4.8 8 1.1 5.5 1.3 16.1 0.4 22.2-0.8 5.3-2.4 7.1-4.6 9.5-0.4 0.4-0.8 0.8-1.2 1.3-2.8 3.2-6.6 8.5-9 13.7-2.2 4.9-3.1 9.9-2.5 14.3 0.6 4.3 2.5 8.2 5.5 10.9 3 2.7 7.2 4.3 11.4 4.5 4.3 0.2 8.6-1.1 11.7-3.6 2.9-2.3 4.7-5.6 6.8-9.6l1.2-1.7z" fill="#870002" p-id="10771"></path><path d="M500.9 426c-2.2-1.2-5.8-4.3-8.1-6.8s-3.5-4.6-3.7-6.7c-0.2-2.2 0.6-4.5 1.9-5.9 1.3-1.4 2.9-1.9 4.3-1.9s2.4 0.4 3.6 1.3c1.2 0.9 2.6 2.3 3.6 2.6 0.9 0.3 1.4-0.4 2.1-1.3 0.7-0.9 1.8-1.8 3.2-2.2 1.4-0.3 3.2-0.1 4.6 0.6 1.5 0.7 2.6 1.8 3.2 3.4 0.6 1.7 0.7 3.9 0.2 5.8-0.4 1.9-1.4 3.5-3.3 5.3-1.9 1.8-4.7 3.8-6.6 5.2-1.8 1.2-2.8 1.8-5 0.6z" fill="#FF3D40" p-id="10772"></path><path d="M503 427.7c-0.7 0-1.6-0.2-2.6-0.8-2.5-1.4-6.2-4.6-8.4-7-2.6-2.8-3.8-5-3.9-7.4-0.2-2.4 0.7-5 2.2-6.7 1.7-1.9 3.9-2.2 5.1-2.2 1.5 0 2.8 0.4 4.2 1.5 0.4 0.3 0.8 0.7 1.3 1 0.7 0.6 1.6 1.3 2 1.4 0.2 0 0.4-0.4 0.6-0.6 0.1-0.1 0.2-0.3 0.3-0.4 1.2-1.4 2.4-2.2 3.8-2.5 1.6-0.4 3.6-0.1 5.3 0.7 1.8 0.9 3.1 2.2 3.8 4 0.7 1.8 0.8 4.3 0.3 6.4-0.5 2.1-1.6 3.9-3.6 5.8-1.8 1.7-4.4 3.6-6.7 5.3-1.4 0.8-2.4 1.5-3.7 1.5z m-7.5-22h-0.1c-0.8 0-2.4 0.2-3.5 1.5-1.1 1.2-1.8 3.3-1.6 5.1 0.1 1.9 1.2 3.7 3.4 6.1 2.4 2.6 5.9 5.5 7.9 6.6 1.7 0.9 2.1 0.6 3.9-0.7 2.2-1.6 4.8-3.4 6.5-5.1 1.7-1.6 2.6-3 3-4.7 0.4-1.7 0.3-3.8-0.2-5.2-0.5-1.3-1.3-2.2-2.7-2.8-1.3-0.6-2.8-0.8-3.9-0.5-0.9 0.2-1.8 0.8-2.7 1.8l-0.3 0.3c-0.6 0.8-1.5 1.8-3 1.3-0.8-0.3-1.7-1-2.7-1.8-0.4-0.3-0.8-0.7-1.2-0.9-1.1-0.7-1.8-1-2.8-1zM502.6 444.1c-1.7 0-3.7-0.7-5.2-1.9-1.4-1.1-2.3-2.5-3.2-3.8l1.8-1.2c0.8 1.2 1.6 2.4 2.7 3.3 1.2 0.9 2.6 1.4 3.9 1.4 1.2 0 2.5-0.5 3.6-1.4 1-0.9 1.6-2 2.3-3.2l1.9 1c-0.7 1.3-1.5 2.6-2.7 3.7-1.5 1.3-3.3 2-5.1 2.1zM475 378.9c-0.4 0-0.8-0.3-1-0.7-0.7-1.9-1.8-3.5-3.3-4.8-4.8-4-11.9-3.4-16 1.3-0.9 1-1.5 2.2-2 3.4-0.2 0.6-0.8 0.8-1.4 0.6-0.6-0.2-0.8-0.8-0.6-1.4 0.5-1.5 1.3-2.8 2.4-4 4.8-5.7 13.3-6.4 19-1.6 1.8 1.5 3.2 3.5 4 5.7 0.2 0.6-0.1 1.2-0.6 1.4-0.2 0.1-0.4 0.1-0.5 0.1zM553.5 378.8c-0.4 0-0.8-0.3-1-0.7-0.7-1.9-1.8-3.5-3.3-4.8-2.3-2-5.2-2.9-8.3-2.6-3 0.3-5.8 1.7-7.7 4-0.9 1-1.5 2.2-2 3.4-0.2 0.6-0.8 0.8-1.4 0.6-0.6-0.2-0.8-0.8-0.6-1.4 0.5-1.5 1.3-2.8 2.4-4 2.3-2.7 5.6-4.4 9.2-4.7 3.6-0.3 7.1 0.8 9.8 3.1 1.8 1.5 3.2 3.5 4 5.7 0.2 0.6-0.1 1.2-0.6 1.4h-0.5z" fill="#870002" p-id="10773"></path><path d="M509.4 437.8c-3.1-2.6-5.1-6.3-7.2-10-2 3.7-4 7.4-7.1 9.9 0.8 1.3 1.7 2.6 2.9 3.6 1.3 1 3 1.7 4.6 1.7 1.6 0 3.2-0.7 4.3-1.7 1.1-1 1.8-2.2 2.5-3.5z" fill="#FF3D40" p-id="10774"></path><path d="M502.6 444.1c-1.7 0-3.7-0.7-5.2-1.9-1.4-1.1-2.3-2.5-3.2-3.8l-0.5-0.8 0.8-0.6c2.9-2.3 4.7-5.6 6.8-9.6l0.9-1.8 1 1.8c2.1 3.9 4.1 7.3 6.9 9.7l0.7 0.6-0.4 0.8c-0.7 1.3-1.5 2.6-2.7 3.7-1.5 1.1-3.3 1.8-5.1 1.9z m-6.1-6.1c0.6 0.9 1.3 1.8 2.2 2.5 1.2 0.9 2.7 1.4 3.9 1.4 1.2 0 2.5-0.5 3.6-1.4 0.8-0.7 1.3-1.5 1.8-2.4-2.3-2.1-4.1-4.9-5.8-8-1.4 2.7-3.2 5.6-5.7 7.9z" fill="#870002" p-id="10775"></path><path d="M796.4 889.3H211c-30.1 0-54.7-23.4-54.7-52.1V390.6H146L505 91.9l359 298.7h-13v446.6c0 28.7-24.5 52.1-54.6 52.1zM157.9 385.1h2.8v449c0 26.3 22.6 47.6 50.4 47.6h585.3c27.8 0 50.4-21.4 50.4-47.6v-449h5.4L505 97.4 157.9 385.1z" fill="#870002" p-id="10776"></path><path d="M91.7 417.1l397.5-351c9.7-8.6 24.8-7.7 33.4 2.1 8.6 9.7 7.7 24.8-2.1 33.4L123 452.6c-9.7 8.6-24.8 7.7-33.4-2.1-8.6-9.8-7.6-24.8 2.1-33.4z" fill="#FFFA69" p-id="10777"></path><path d="M107.4 459.9c-0.5 0-1.1 0-1.6-0.1-6.7-0.4-12.8-3.4-17.2-8.4-4.4-5-6.6-11.4-6.2-18.1 0.4-6.7 3.4-12.8 8.4-17.2l397.5-351c5-4.4 11.4-6.6 18.1-6.2 6.7 0.4 12.8 3.4 17.2 8.4 4.4 5 6.6 11.4 6.2 18.1-0.4 6.7-3.4 12.8-8.4 17.2l-397.5 351c-4.6 4.1-10.4 6.3-16.5 6.3zM504.9 61.7c-5.2 0-10.5 1.8-14.7 5.6l-397.5 351c-4.4 3.9-7.1 9.3-7.4 15.3-0.4 5.9 1.6 11.7 5.5 16.1 3.9 4.4 9.3 7.1 15.3 7.4 5.9 0.4 11.7-1.6 16.1-5.5l397.5-351c4.4-3.9 7.1-9.3 7.4-15.3 0.4-5.9-1.6-11.7-5.5-16.1-4.4-5-10.6-7.5-16.7-7.5z" fill="#870002" p-id="10778"></path><path d="M918.8 417.1l-397.5-351c-9.7-8.6-24.8-7.7-33.4 2.1-8.6 9.7-7.7 24.8 2.1 33.4l397.5 351c9.7 8.6 24.8 7.7 33.4-2.1 8.6-9.8 7.7-24.8-2.1-33.4z" fill="#FFFA69" p-id="10779"></path><path d="M903.1 459.9c-6.1 0-11.9-2.2-16.5-6.2L489 102.7c-5-4.4-8-10.5-8.4-17.2s1.8-13.1 6.2-18.1c9.1-10.4 25-11.3 35.4-2.2l397.5 351c10.4 9.1 11.3 25 2.2 35.4-4.4 5-10.5 8-17.2 8.4-0.5-0.1-1.1-0.1-1.6-0.1zM505.7 61.7h-1.4c-5.9 0.4-11.4 3-15.3 7.4-3.9 4.4-5.9 10.1-5.5 16.1 0.4 5.9 3 11.4 7.4 15.3l397.5 351c4.4 3.9 10.2 5.9 16.1 5.5 5.9-0.4 11.4-3 15.3-7.4 8.1-9.2 7.2-23.3-2-31.4l-397.5-351c-4-3.6-9.2-5.5-14.6-5.5z" fill="#870002" p-id="10780"></path><path d="M776.9 856.7c-28.8 0-55.7-3.7-76.7-10.8-24.6-8.2-38.5-20-39-33.2-0.5-13.2 12.4-26.1 36.3-36.2 23.6-10 55.2-16.3 89.1-17.6 33.8-1.3 65.9 2.4 90.2 10.5 24.6 8.2 41.3 20 41.9 33.2 0.5 13.2-15.2 26.2-39.1 36.3-23.6 10-55.2 16.3-89.1 17.6-4.7 0.1-9.2 0.2-13.6 0.2z m9.6-95.7c-33.6 1.3-65 7.5-88.3 17.4-23 9.8-35.5 21.9-35 34.2 0.5 12.3 13.8 23.4 37.6 31.3 24.1 8 55.8 11.7 89.4 10.4 33.6-1.3 65-7.5 88.3-17.4 23-9.8 35.5-21.9 35-34.2-1-25.7-57.9-44.5-127-41.7z" fill="#870002" p-id="10781"></path><path d="M708.1 910.6c7.9 2.7 16.3 7.4 22.9 13.4 6.6 5.9 11.3 13.1 14.4 20.2 2.4 5.5 3.7 11 4.8 16.5 13.2 1.8 27 2.7 41.1 2.7 73.5 0 136.5-25 152.1-59.7l-27-104.3v0.1c0.3 1.3 0.5 2.5 0.6 3.8 1 26.4-54.7 50-124.5 52.7-69.8 2.8-127.2-16.4-128.3-42.7l-17.8 102c5.2 6.4 12.2 12.4 20.5 17.8 1.4-6 2.8-11.9 5.8-16.4 3.1-4.5 7.9-7.4 14-8.5 6.2-1 13.5-0.3 21.4 2.4z" fill="#FFFA69" p-id="10782"></path><path d="M791.3 964.8c-14 0-27.9-0.9-41.3-2.7l-1.1-0.1-0.2-1c-1-5.1-2.3-10.6-4.7-16.2-3.2-7.5-8.1-14.3-14-19.7-6.1-5.5-14.3-10.3-22.4-13.1-7.4-2.6-14.5-3.4-20.5-2.3-5.7 1-10.2 3.7-13 7.9-2.9 4.2-4.3 10.1-5.6 15.8l-0.5 2.1-1.8-1.2c-8.6-5.5-15.6-11.6-20.8-18.1l-0.4-0.5 0.1-0.7 20.2-115.8 0.6 14c0.5 12.1 13.7 23.1 37.3 30.9 24.1 8 55.8 11.7 89.4 10.4 33.6-1.3 64.9-7.5 88.3-17.4 22.9-9.7 33.9-21.2 33.5-33.3 0-1.2 0.3-2.6 0-3.8l0.8-0.3h-0.8l0.3 0.6s3.4-1.3 3.2-0.9L945 904v0.2c-7.8 17.2-27.4 32.6-55.2 43.6-27.9 11-62.8 17-98.5 17z m-39.8-5.5c13 1.7 26.4 2.5 39.9 2.5 35.3 0 69.8-5.9 97.2-16.7 26.9-10.6 45.8-25.3 53.4-41.6L917.7 810c-3.3 11-15.7 21.4-35.7 29.9-23.7 10-55.4 16.3-89.3 17.6-33.9 1.3-66.1-2.4-90.5-10.5-20.2-6.7-33.2-15.9-37.7-26.2l-16.4 94.1c4.6 5.6 10.7 10.9 17.9 15.8 1.2-5.3 2.7-10.6 5.6-14.8 3.3-4.8 8.5-7.9 15-9.1 6.5-1.2 14.1-0.3 22 2.4 8.5 2.9 17 7.9 23.4 13.7 6.2 5.6 11.3 12.8 14.7 20.7 2.4 5.4 3.7 10.7 4.8 15.7z" fill="#80191E" p-id="10783"></path><path d="M669.4 827.7c17.6 18.2 65.3 29.9 120.8 27.7 59.8-2.4 109.3-20.1 121.5-41.7-15.4-18.4-64.5-30.1-122-27.3-59.8 2.8-109.1 20.4-120.3 41.3z" fill="#FFFA69" p-id="10784"></path><path d="M777 856c-48.8 0-91.2-10.8-107.9-28l-0.2-0.2 0.1-0.2c11.4-21.3 62.1-38.8 120.6-41.6 56.2-2.7 106.5 8.6 122.3 27.5l0.2 0.2-0.1 0.2c-12.6 22.3-62.6 39.6-121.8 41.9-4.4 0.1-8.8 0.2-13.2 0.2z m-107.1-28.4c20.7 21.1 64 29.6 120.4 27.4 28.6-1.1 56.5-6 78.5-13.6 21.5-7.5 36.6-17.3 42.6-27.7-15.9-18.6-65.8-29.7-121.6-27-58.1 2.8-108.4 20-119.9 40.9z" fill="#870002" p-id="10785"></path><path d="M777 857.5c-13.5 0-26.5-0.8-38.7-2.4-20.6-2.3-37.7-6.8-51-13.3-8.1-3.7-14.7-8-19.3-12.8l-0.9-1 0.6-1.2c11.6-21.7 62.9-39.5 121.9-42.4 56.6-2.7 107.4 8.8 123.5 28l0.8 1-0.6 1.1c-12.8 22.8-63.4 40.3-123 42.7-4.4 0.2-8.9 0.3-13.3 0.3z m-38.4-5.4c15.3 1.7 32.5 2.2 51.6 1.4 28.5-1.1 56.2-5.9 78.1-13.5 20.5-7.1 35-16.4 41.2-26.1-16.3-17.8-65.2-28.3-119.6-25.7-56.6 2.7-105.8 19.2-118.1 39.2 4.7 4.6 10.6 8.6 17.6 12 12.9 5.8 29.9 10.2 49.2 12.7z" fill="#80191E" p-id="10786"></path><path d="M287.8 604.8h10.9c1.5 0 2.8 1.3 2.8 2.8v270.9c0 1.5-1.3 2.8-2.8 2.8h-10.9c-1.5 0-2.8-1.3-2.8-2.8V607.6c0-1.5 1.3-2.8 2.8-2.8z" fill="#FF3D40" p-id="10787"></path><path d="M298.7 882.7h-10.9c-2.3 0-4.2-1.9-4.2-4.2V607.6c0-2.3 1.9-4.2 4.2-4.2h10.9c2.3 0 4.2 1.9 4.2 4.2v270.9c0 2.3-1.9 4.2-4.2 4.2z m-10.9-276.5c-0.8 0-1.4 0.6-1.4 1.4v270.9c0 0.8 0.6 1.4 1.4 1.4h10.9c0.8 0 1.4-0.6 1.4-1.4V607.6c0-0.8-0.6-1.4-1.4-1.4h-10.9z" fill="#870002" p-id="10788"></path><path d="M355.6 866.7c-0.4 0-0.7-0.3-0.7-0.7V612.5c0-0.4 0.3-0.7 0.7-0.7s0.7 0.3 0.7 0.7V866c0 0.4-0.3 0.7-0.7 0.7zM418.5 866.7c-0.4 0-0.7-0.3-0.7-0.7V612.5c0-0.4 0.3-0.7 0.7-0.7s0.7 0.3 0.7 0.7V866c0 0.4-0.3 0.7-0.7 0.7zM481.5 866.7c-0.4 0-0.7-0.3-0.7-0.7V612.5c0-0.4 0.3-0.7 0.7-0.7s0.7 0.3 0.7 0.7V866c0 0.4-0.3 0.7-0.7 0.7z" fill="#CF0B11" p-id="10789"></path><path d="M495.5 745.5m-14 0a14 14 0 1 0 28 0 14 14 0 1 0-28 0Z" fill="#FFFA69" p-id="10790"></path><path d="M495.5 760.5c-8.3 0-15.1-6.8-15.1-15.1s6.8-15.1 15.1-15.1 15.1 6.8 15.1 15.1-6.8 15.1-15.1 15.1z m0-28c-7.1 0-12.9 5.8-12.9 12.9 0 7.1 5.8 12.9 12.9 12.9s12.9-5.8 12.9-12.9c0-7.1-5.8-12.9-12.9-12.9z" fill="#870002" p-id="10791"></path><path d="M669.1 828.4c10.4-21.2 60.1-39.2 120.7-42.1 57.6-2.8 106.7 9 122.1 27.4 1.8-3.4 2.6-6.8 2.5-10.3-1-26.4-58.4-45.5-128.1-42.7-69.7 2.8-125.4 26.4-124.3 52.7 0 5.3 2.6 10.4 7.1 15z" fill="#FF9B29" p-id="10792"></path><path d="M669.3 830.3l-1.1-1.1c-4.8-4.9-7.3-10.2-7.5-15.7-0.5-13.2 12.4-26.1 36.3-36.2 23.6-10 55.2-16.3 89.1-17.6 33.8-1.3 65.9 2.4 90.2 10.5 24.6 8.2 38.5 20 39 33.2 0.1 3.6-0.7 7.3-2.6 10.8l-0.7 1.4-1-1.2c-15.5-18.6-65.3-29.7-121.2-27-59 2.8-109.4 20.3-119.8 41.5l-0.7 1.4z m130.2-68.8c-4.4 0-8.8 0.1-13.3 0.3-69 2.7-124.3 25.9-123.3 51.6 0.2 4.6 2.2 9 5.9 13.3 12.1-21.3 62.4-38.5 120.9-41.4 55.3-2.7 104.8 8.2 121.8 26.6 1.2-2.8 1.8-5.6 1.7-8.4-1-24.1-50.8-42-113.7-42z" fill="#870002" p-id="10793"></path><path d="M851 780.6l-148.8-79.9c-1-2.9-1.9-5.7-3.2-8.8-1.2-3.1-2.8-6.5-5.1-9.2-2.3-2.7-5.3-4.8-8.7-5.7-3.3-0.9-6.9-0.6-10 1.2-3.1 1.9-5.7 5.3-7.2 8.3-1.5 3-2 5.4-2 7.7s0.5 4.3 1.2 6c0.2 0.6 0.5 1.1 0.7 1.6l-1.8 0.3c-1.8 0.4-3.8 1.1-5.7 2.3-1.9 1.2-3.7 3-5.3 5.9-1.6 2.9-3.1 7-2.9 10.6 0.1 3.6 1.9 6.7 4.5 9s6 3.7 9.5 4.1c3.5 0.4 7.2-0.2 10.5-0.9s6.2-1.5 9.1-2.3l148.8 79.9c1 2.9 1.9 5.7 3.2 8.8 1.2 3.1 2.8 6.5 5.1 9.2 2.3 2.7 5.3 4.8 8.7 5.6 3.3 0.9 6.9 0.6 10-1.2 3.1-1.9 5.7-5.3 7.2-8.3 1.5-3 2-5.4 2-7.7s-0.5-4.3-1.2-6c-0.2-0.6-0.5-1.1-0.7-1.6l1.8-0.3c1.8-0.4 3.8-1.1 5.7-2.3 1.9-1.2 3.7-3 5.3-5.9 1.6-2.9 3.1-7 2.9-10.6-0.1-3.6-1.9-6.7-4.5-9s-6-3.7-9.5-4.1c-3.5-0.4-7.2 0.2-10.5 0.9-3.3 0.8-6.2 1.6-9.1 2.4z" fill="#FFFFFF" p-id="10794"></path><path d="M855.3 836c-1.3 0-2.6-0.2-3.9-0.5-3.4-0.9-6.7-3-9.2-6-2.4-2.9-4-6.4-5.3-9.5-1.2-3-2.1-5.8-3-8.5L685.8 732c-2.8 0.7-5.6 1.5-8.8 2.2-3.3 0.7-7.1 1.3-10.8 0.9-3.8-0.4-7.4-2-10.1-4.4-3-2.6-4.7-6.1-4.8-9.7-0.1-3.3 1-7.4 3.1-11.1 1.5-2.8 3.3-4.8 5.7-6.3 1.8-1.2 3.8-2 6.1-2.4 0.1 0 0.3-0.1 0.4-0.1-0.1-0.1-0.1-0.3-0.2-0.4-0.8-2.1-1.3-4.3-1.3-6.4 0-2.8 0.6-5.4 2.1-8.2 1.9-3.7 4.8-7 7.6-8.7 3.1-1.9 7-2.4 10.8-1.4 3.4 0.9 6.7 3 9.2 6 2.4 2.9 4 6.4 5.3 9.5 1.2 3 2.1 5.8 3 8.5l148.1 79.5c2.8-0.7 5.6-1.5 8.8-2.2 3.3-0.7 7.1-1.3 10.8-0.9 3.8 0.4 7.4 2 10.1 4.4 3 2.6 4.7 6.1 4.8 9.7 0.1 3.3-1 7.4-3.1 11.1-1.6 2.8-3.4 4.8-5.7 6.3-1.8 1.2-3.8 2-6.1 2.4-0.1 0-0.3 0.1-0.4 0.1 0.1 0.1 0.1 0.3 0.2 0.4 0.8 2.1 1.3 4.3 1.3 6.4 0 2.8-0.6 5.4-2.1 8.2-1.9 3.7-4.8 7-7.6 8.7-2.1 1.3-4.5 1.9-6.9 1.9zM686.1 729.7l0.4 0.2L835.7 810l0.1 0.4c0.9 2.8 1.9 5.7 3.1 8.8 1.2 2.9 2.7 6.3 4.9 8.9 2.2 2.6 5.1 4.5 8.1 5.3 3.2 0.9 6.5 0.5 9.1-1.1 2.5-1.5 5-4.5 6.8-7.9 1.3-2.5 1.9-4.8 1.9-7.2 0-1.9-0.4-3.8-1.2-5.6-0.2-0.5-0.4-1-0.7-1.5l-0.7-1.4 1.5-0.2c0.6-0.1 1.1-0.2 1.7-0.3 2-0.4 3.8-1.1 5.3-2.2 2-1.3 3.6-3.1 5-5.5 1.9-3.4 2.9-7.1 2.8-10-0.1-3.1-1.6-6-4.1-8.2-2.3-2.1-5.5-3.4-8.9-3.8-3.4-0.4-7.1 0.2-10.2 0.8-3.3 0.7-6.2 1.5-9 2.2l-0.4 0.1-0.4-0.2-149.2-80.1-0.1-0.4c-0.9-2.8-1.9-5.7-3.1-8.8-1.2-2.9-2.7-6.3-4.9-8.9-2.2-2.6-5.1-4.5-8.1-5.3-3.2-0.9-6.5-0.5-9.1 1.1-2.5 1.5-5 4.5-6.8 7.9-1.3 2.5-1.9 4.8-1.9 7.2 0 1.9 0.4 3.8 1.2 5.6 0.2 0.5 0.4 1 0.7 1.5l0.7 1.4-1.5 0.2c-0.6 0.1-1.1 0.2-1.7 0.3-2 0.4-3.8 1.1-5.3 2.1-2 1.3-3.6 3.1-5 5.5-1.9 3.4-2.9 7.1-2.8 10 0.1 3.1 1.6 6 4.1 8.2 2.3 2.1 5.5 3.4 8.9 3.8 3.4 0.4 7.1-0.2 10.1-0.8 3.3-0.7 6.2-1.5 9-2.2h0.5z" fill="#870002" p-id="10795"></path></svg>