<?xml version="1.0" standalone="no"?><!DOCTYPE svg PUBLIC "-//W3C//DTD SVG 1.1//EN" "http://www.w3.org/Graphics/SVG/1.1/DTD/svg11.dtd"><svg t="1613715360385" class="icon" viewBox="0 0 1024 1024" version="1.1" xmlns="http://www.w3.org/2000/svg" p-id="7790" xmlns:xlink="http://www.w3.org/1999/xlink" width="200" height="200"><defs><style type="text/css"></style></defs><path d="M511.9 581.4c-43.9 0-87.3-11.4-125.6-33.1-80-45.3-129.7-130.5-129.7-222.4 0-140.8 114.6-255.4 255.4-255.4 140.9 0 255.5 114.6 255.5 255.4 0 92.1-49.9 177.3-130.1 222.5-38 21.5-81.4 33-125.5 33z m0-478.5c-122.9 0-222.9 100-222.9 223 0 80.2 43.4 154.6 113.3 194.2 67 37.9 153 37.7 219.1 0C691.5 480.6 735 406.2 735 325.9c0-123-100.1-223-223.1-223z" fill="#E86262" p-id="7791"></path><path d="M944.1 966.2c-9 0-16.2-7.3-16.2-16.2 0-185.4-124.6-350-302.9-400.2-8.6-2.4-13.6-11.4-11.2-20 2.4-8.6 11.4-13.6 20-11.2C826 572.7 960.4 750.1 960.4 950c0 9-7.3 16.2-16.3 16.2zM79.9 966.2c-9 0-16.2-7.3-16.2-16.2 0-199.9 134.2-377.3 326.2-431.5 8.7-2.4 17.6 2.6 20 11.2 2.4 8.6-2.6 17.6-11.2 20C220.5 600 96.1 764.6 96.1 950c0 9-7.3 16.2-16.2 16.2z" fill="#E86262" p-id="7792"></path></svg>