<?xml version="1.0" standalone="no"?><!DOCTYPE svg PUBLIC "-//W3C//DTD SVG 1.1//EN" "http://www.w3.org/Graphics/SVG/1.1/DTD/svg11.dtd"><svg t="1613715421389" class="icon" viewBox="0 0 1057 1024" version="1.1" xmlns="http://www.w3.org/2000/svg" p-id="7921" xmlns:xlink="http://www.w3.org/1999/xlink" width="206.4453125" height="200"><defs><style type="text/css"></style></defs><path d="M512 561.548387C356.748387 561.548387 231.225806 436.025806 231.225806 280.774194S356.748387 0 512 0 792.774194 125.522581 792.774194 280.774194 667.251613 561.548387 512 561.548387z m0-495.483871C393.083871 66.064516 297.290323 161.858065 297.290323 280.774194s95.793548 214.709677 214.709677 214.709677S726.709677 399.690323 726.709677 280.774194 630.916129 66.064516 512 66.064516z" p-id="7922"></path><path d="M1057.032258 1024H0l3.303226-36.335484C19.819355 713.496774 251.045161 495.483871 528.516129 495.483871s508.696774 218.012903 528.516129 492.180645V1024zM69.367742 957.935484h914.993548c-33.032258-224.619355-227.922581-396.387097-459.148387-396.387097C297.290323 561.548387 102.4 733.316129 69.367742 957.935484z" p-id="7923"></path></svg>